<?xml version="1.0" encoding="utf-8"?>
<!-- Svg Vector Icons : http://www.onlinewebfonts.com/icon -->
<!DOCTYPE svg PUBLIC "-//W3C//DTD SVG 1.1//EN" "http://www.w3.org/Graphics/SVG/1.1/DTD/svg11.dtd">
<svg version="1.1" xmlns="http://www.w3.org/2000/svg" xmlns:xlink="http://www.w3.org/1999/xlink" x="0px" y="0px" viewBox="0 0 1000 1000" enable-background="new 0 0 1000 1000" xml:space="preserve">
<metadata> Svg Vector Icons : http://www.onlinewebfonts.com/icon </metadata>
<g><g><g><g>
<path fill="#00b100" d="M865,538.2h-4.2V242.7c-12.9-5.9-24.5-13.8-34.2-23.8c-8.9,9.1-19.6,16.4-31.1,22.1v297.2h-591V241c-11.6-5.8-22.3-13-31.1-22.1c-9.8,10-21.4,17.9-34.2,23.8v295.5h-4.2c-39.1,0-70.8,31.7-70.8,70.8V965c0,13.5,10.9,24.5,24.4,24.5h822.9c13.5,0,24.4-10.9,24.4-24.5V609C935.9,569.9,904.2,538.2,865,538.2z "/><path fill="#e08b3e " d="M500,616.2c88,0,161.1,37.8,177.1,88H322.9C338.9,654.1,412,616.2,500,616.2z M500,911.3c-88,0-161.1-37.8-177.1-88h354.3C661.2,873.5,588,911.3,500,911.3z "/><path fill="#654321" d="M687.4,797.9H312.6c-18.8,0-34.1-15.3-34.1-34.1c0-18.9,15.3-34.1,34.1-34.1h374.8c18.8,0,34.1,15.2,34.1,34.1C721.5,782.6,706.2,797.9,687.4,797.9z"/>
<path fill="#D44A2E " d="M955.2,10.6H44.7C25.6,10.6,10,26.1,10,45.3V139c0,45.1,36.6,81.7,81.7,81.7c45.1,0,81.7-36.6,81.7-81.7c0,45.1,36.6,81.7,81.7,81.7s81.7-36.6,81.7-81.7c0,45.1,36.6,81.7,81.7,81.7c45.1,0,81.7-36.6,81.7-81.7c0,45.1,36.6,81.7,81.7,81.7c45.1,0,81.7-36.6,81.7-81.7c0,45.1,36.6,81.7,81.7,81.7s81.7-36.6,81.7-81.7c0,45.1,36.6,81.7,81.7,81.7c45.1,0,81.7-36.6,81.7-81.7V45.3C990,26.1,974.4,10.6,955.2,10.6z"/>
</g></g></g><g></g><g></g><g></g><g></g><g></g><g></g><g></g><g></g><g></g><g></g><g></g><g></g><g></g><g></g><g></g></g>
</svg>